<?xml version="1.0" standalone="no"?>
<!DOCTYPE svg PUBLIC "-//W3C//DTD SVG 20010904//EN"
 "http://www.w3.org/TR/2001/REC-SVG-20010904/DTD/svg10.dtd">
<svg version="1.0" xmlns="http://www.w3.org/2000/svg"
 width="500.000000pt" height="500.000000pt" viewBox="0 0 500.000000 500.000000"
 preserveAspectRatio="xMidYMid meet">

<g transform="translate(0.000000,500.000000) scale(0.100000,-0.100000)"
fill="#000000" stroke="none">
<path d="M1775 4680 c33 -17 102 -61 152 -99 51 -38 95 -66 98 -62 2 5 -4 16
-15 26 -11 10 -20 15 -20 12 0 -4 -27 13 -61 38 -88 65 -174 115 -195 114 -11
0 8 -13 41 -29z m236 -147 c13 -16 12 -17 -3 -4 -17 13 -22 21 -14 21 2 0 10
-8 17 -17z"/>
<path d="M3662 4639 c-64 -42 -200 -161 -234 -204 -11 -14 -23 -23 -27 -20
-10 5 -49 -37 -84 -90 -24 -35 -25 -40 -11 -48 12 -7 19 -5 26 7 22 40 137
176 192 229 55 52 144 123 192 154 11 6 16 12 13 12 -4 1 -34 -17 -67 -40z
m-302 -298 c-41 -60 -50 -69 -50 -53 0 13 81 124 87 119 2 -3 -14 -33 -37 -66z"/>
<path d="M3054 4618 c-27 -31 -76 -109 -72 -113 2 -3 25 27 50 65 25 39 45 70
44 70 -2 0 -11 -10 -22 -22z"/>
<path d="M2036 4511 c-6 -8 23 -39 31 -33 2 1 11 -2 21 -7 13 -8 14 -10 2 -11
-8 0 9 -21 38 -46 40 -35 50 -49 40 -55 -7 -5 -8 -9 -3 -10 6 0 20 -2 33 -5
17 -3 7 11 -40 57 -60 59 -46 52 41 -19 23 -19 41 -30 40 -25 0 4 -20 24 -44
43 -24 19 -44 41 -44 48 -1 6 -9 12 -19 12 -9 0 -34 14 -54 30 -20 17 -39 26
-42 21z"/>
<path d="M1361 4098 c-33 -34 -58 -65 -56 -69 3 -3 -26 -9 -63 -12 -37 -4 -78
-8 -92 -11 -14 -2 -29 -5 -33 -5 -5 -1 -5 -6 -1 -13 4 -7 3 -8 -5 -4 -7 5 -34
-9 -66 -33 -64 -49 -197 -201 -191 -218 3 -6 -14 -40 -36 -75 -23 -35 -61
-103 -84 -153 -43 -90 -58 -111 -28 -40 8 20 13 39 11 41 -7 7 -35 -75 -59
-171 -27 -110 -32 -354 -9 -445 37 -148 124 -271 240 -340 82 -48 169 -70 286
-70 50 0 95 -4 100 -9 6 -5 71 -36 146 -69 206 -91 373 -142 465 -142 19 0 34
-3 34 -6 0 -4 -18 -27 -41 -51 -22 -24 -47 -59 -54 -77 -12 -28 -22 -35 -76
-50 -112 -31 -159 -67 -258 -201 -67 -89 -118 -194 -132 -270 -15 -80 -6 -259
15 -309 9 -21 31 -56 49 -76 17 -21 43 -55 56 -77 12 -22 36 -47 51 -56 38
-23 115 -21 169 3 l43 20 50 -45 c28 -25 83 -61 124 -81 74 -37 85 -54 37 -54
-27 0 -132 -54 -145 -74 -4 -6 -8 -7 -8 -2 0 5 -9 1 -20 -9 -12 -10 -18 -25
-15 -32 2 -8 0 -11 -5 -8 -15 9 -12 -42 5 -74 28 -56 66 -62 389 -64 307 -1
323 1 355 46 12 17 22 19 85 14 313 -25 398 -29 516 -25 169 5 210 19 210 71
0 66 -24 102 -82 126 -43 17 -177 41 -235 41 -31 0 -7 19 70 55 45 22 94 53
110 69 19 20 25 23 21 10 -4 -11 -4 -16 0 -13 4 4 9 21 11 38 4 27 1 31 -19
31 -13 0 -51 -18 -84 -40 -33 -22 -62 -40 -66 -40 -3 0 -6 9 -6 20 0 11 -7 20
-15 20 -8 0 -15 5 -15 11 0 15 -23 36 -46 42 -10 2 -1 5 21 6 22 1 58 6 80 10
34 7 26 9 -48 10 -50 1 -86 5 -83 10 4 5 -15 26 -40 48 -55 45 -55 45 -100
106 -19 26 -39 45 -45 42 -5 -3 -14 14 -21 39 -7 26 -16 46 -20 46 -4 0 -8 6
-8 14 0 8 -5 16 -12 18 -9 3 -13 34 -13 100 0 53 3 91 7 85 4 -7 8 -21 9 -32
0 -11 5 -4 10 16 8 35 60 122 80 134 5 4 21 29 34 56 14 27 29 49 34 49 5 0 7
8 4 19 -6 23 6 31 52 33 42 2 42 22 -1 24 -16 1 -32 2 -37 3 -4 0 9 25 29 53
38 55 99 118 109 112 3 -2 1 2 -5 8 -15 18 -12 28 9 28 11 0 27 8 37 18 10 9
19 16 21 15 2 -2 6 -3 11 -3 4 1 -8 7 -26 15 -34 15 -36 34 -4 36 12 0 9 3 -7
10 -18 7 -22 12 -13 21 9 9 18 8 37 -2 29 -16 43 -7 25 15 -17 21 -3 19 36 -6
32 -20 37 -20 97 -6 l62 14 -30 13 -30 14 29 4 c16 2 35 10 43 18 8 8 26 17
41 20 15 4 43 14 62 24 19 9 62 30 95 45 59 28 59 29 30 35 -27 5 -22 7 40 24
171 46 337 128 398 196 100 111 142 244 142 445 -1 193 -41 324 -137 451 -103
137 -246 199 -335 145 -36 -22 -81 -86 -107 -151 -34 -86 -54 -115 -110 -161
-65 -53 -110 -69 -193 -69 -118 0 -242 64 -339 177 -240 276 -342 331 -589
320 -93 -4 -123 -9 -192 -36 -99 -38 -176 -94 -259 -184 -34 -37 -70 -67 -80
-67 -11 -1 -30 -7 -44 -15 -56 -32 -65 -5 -25 75 21 41 23 50 10 50 -9 0 -19
8 -22 18 -7 17 -18 29 -69 70 -16 12 -25 22 -20 22 4 0 -3 13 -16 29 -12 16
-32 41 -43 57 -11 16 -34 43 -52 61 -18 17 -33 39 -33 47 0 9 -4 16 -10 16 -5
0 -12 11 -16 25 -4 18 -13 25 -31 25 -16 0 -22 -4 -17 -12 4 -7 4 -10 -1 -6
-4 4 -15 2 -24 -4 -9 -7 10 15 42 47 31 32 57 64 57 72 0 28 -32 11 -89 -49z
m-24 -109 c26 -10 27 -11 9 -21 -13 -7 -30 -7 -56 1 -49 15 -62 13 -25 -3 29
-12 28 -13 -45 -20 -41 -4 -90 -14 -110 -22 l-35 -14 35 31 c58 50 163 72 227
48z m973 -319 c-30 -4 -71 -10 -90 -13 -34 -6 -34 -6 5 8 22 7 63 13 90 13
l50 -1 -55 -7z m-821 -63 c1 -16 -3 -26 -9 -22 -5 3 -10 25 -9 48 0 33 2 38 9
22 5 -11 9 -33 9 -48z m2215 54 c4 -5 0 -12 -6 -14 -7 -3 2 -6 20 -6 99 -3
241 -142 288 -283 23 -71 11 -70 -16 2 -12 33 -26 57 -30 55 -5 -3 -12 0 -16
6 -4 8 -3 9 4 5 30 -18 6 20 -50 80 -151 162 -270 133 -373 -88 -19 -41 -25
-47 -25 -28 0 28 39 116 71 162 12 17 42 43 67 59 33 21 40 29 26 29 -11 0
-40 -14 -65 -32 -24 -17 -38 -25 -31 -18 6 8 12 18 12 23 0 4 -6 5 -12 1 -7
-4 -4 3 7 15 11 13 29 27 40 32 27 11 83 11 89 0z m-938 -263 c31 -61 31 -86
0 -31 -14 23 -35 57 -49 75 -39 54 -42 65 -8 33 18 -16 44 -51 57 -77z m1171
32 c-1 -3 7 -23 18 -43 17 -33 18 -38 4 -52 -21 -22 -67 -5 -147 54 -44 33
-61 52 -60 66 4 30 78 33 124 6 49 -29 53 -26 18 12 l-29 32 37 -34 c20 -19
36 -37 35 -41z m-1383 29 c73 -20 128 -107 79 -126 -21 -8 -126 13 -180 37
-50 22 -74 60 -53 85 15 18 96 20 154 4z m-1311 -37 c26 -23 43 -60 51 -107 5
-34 2 -30 -18 24 -27 70 -47 97 -68 88 -8 -2 -29 -33 -47 -68 -18 -35 -46 -80
-62 -100 -34 -43 -35 -55 -12 -89 l17 -25 -23 20 c-55 48 -66 122 -28 195 31
62 80 94 132 85 22 -3 48 -14 58 -23z m1095 -38 c6 -2 12 -13 12 -24 0 -28
-36 -40 -121 -40 -54 0 -71 3 -76 16 -16 43 101 74 185 48z m1456 -10 c40 -39
10 -64 -76 -64 -57 0 -69 3 -78 20 -8 15 -6 24 10 40 26 26 120 29 144 4z
m233 -106 c-3 -8 -6 -5 -6 6 -1 11 2 17 5 13 3 -3 4 -12 1 -19z m-2262 -388
c36 -72 102 -148 173 -201 74 -56 85 -66 43 -43 -18 10 -67 50 -107 88 -61 56
-82 84 -119 160 -25 50 -48 107 -50 126 -4 25 -1 20 13 -20 10 -30 31 -80 47
-110z m2259 28 c-3 -13 -13 -39 -22 -58 -8 -19 -14 -39 -13 -43 1 -5 -2 -6 -7
-3 -5 3 -19 -8 -31 -25 -24 -33 -77 -69 -101 -69 -8 0 8 15 35 34 51 34 89 81
121 149 20 41 29 49 18 15z m-697 -54 c-3 -3 -12 -4 -19 -1 -8 3 -5 6 6 6 11
1 17 -2 13 -5z m-1837 -1061 c0 -5 -15 -16 -33 -26 l-32 -17 28 25 c30 26 37
30 37 18z m534 -362 c21 -23 13 -69 -8 -52 -7 6 -16 8 -20 4 -4 -4 -4 0 -1 9
3 8 -1 22 -9 31 -8 8 -12 17 -9 21 12 11 30 6 47 -13z m-394 -108 c0 -8 -4
-12 -9 -8 -5 3 -12 1 -16 -5 -3 -5 -11 -10 -16 -10 -6 0 -8 3 -5 8 7 12 -17
38 -42 46 -17 6 -24 2 -32 -16 -8 -18 -9 -19 -7 -3 1 11 13 25 27 32 20 10 30
9 62 -9 21 -12 38 -28 38 -35z m297 -125 c31 -29 29 -38 -7 -38 -20 0 -30 5
-30 15 0 9 -7 18 -15 21 -22 9 -18 24 7 24 12 0 32 -10 45 -22z m1323 -392 c0
-5 -7 -3 -15 4 -8 7 -15 20 -15 28 0 13 3 12 15 -4 8 -10 15 -23 15 -28z
m-162 -1 c-3 -3 -9 2 -12 12 -6 14 -5 15 5 6 7 -7 10 -15 7 -18z"/>
<path d="M3869 3764 c6 -11 25 -35 42 -54 l31 -35 -33 48 c-34 49 -60 76 -40
41z"/>
<path d="M1899 3723 c-13 -16 -12 -17 4 -4 9 7 17 15 17 17 0 8 -8 3 -21 -13z"/>
<path d="M825 3704 c-9 -15 -12 -23 -6 -20 11 7 35 46 28 46 -3 0 -12 -12 -22
-26z"/>
<path d="M4127 3114 c-8 -221 -48 -364 -128 -465 -38 -48 -25 -50 33 -6 48 37
86 101 125 209 20 57 27 98 30 188 5 112 -5 200 -21 190 -4 -3 -13 6 -20 19
-11 20 -14 0 -19 -135z"/>
<path d="M3315 2004 c4 -11 27 -73 51 -139 24 -66 43 -112 43 -102 1 31 36 3
79 -66 34 -54 72 -99 72 -85 0 23 -47 132 -72 167 -17 23 -43 69 -58 100 -31
63 -72 116 -103 132 -17 10 -19 9 -12 -7z"/>
<path d="M2950 1968 c0 -10 9 -9 35 2 17 8 16 8 -7 7 -16 -1 -28 -5 -28 -9z"/>
<path d="M2982 1848 c-19 -19 -14 -55 10 -72 45 -32 81 30 40 67 -22 20 -34
21 -50 5z m42 -29 c-3 -5 -10 -7 -15 -3 -5 3 -7 10 -3 15 3 5 10 7 15 3 5 -3
7 -10 3 -15z"/>
<path d="M3347 1794 c17 -34 17 -36 0 -45 -16 -9 -16 -12 3 -37 24 -33 29
-107 9 -154 l-14 -33 -6 30 c-4 17 -7 51 -8 77 0 26 -5 50 -11 53 -5 3 -10 19
-10 36 0 16 -5 29 -11 29 -8 0 -10 -26 -7 -87 7 -104 40 -206 66 -201 38 7 41
238 4 322 -12 25 -23 46 -26 46 -3 0 2 -16 11 -36z"/>
<path d="M3469 1663 c5 -16 18 -43 29 -62 12 -19 19 -38 16 -42 -2 -4 13 -32
35 -61 27 -35 37 -56 30 -63 -7 -7 -13 -5 -19 5 -5 8 -10 10 -10 4 0 -5 6 -18
13 -27 11 -15 15 -16 31 -4 19 14 18 17 -19 88 -21 41 -51 92 -66 113 -16 22
-29 48 -29 58 0 10 -4 18 -9 18 -6 0 -6 -12 -2 -27z"/>
<path d="M3422 1650 c0 -19 2 -27 5 -17 2 9 2 25 0 35 -3 9 -5 1 -5 -18z"/>
<path d="M3049 1657 c-40 -30 -50 -87 -24 -137 44 -86 145 -53 145 47 0 74
-72 128 -121 90z m41 -28 c0 -12 -29 -38 -42 -39 -12 0 -9 25 4 38 15 15 38
16 38 1z m20 -37 c0 -10 5 -23 11 -29 13 -13 5 -43 -10 -43 -5 0 -17 14 -25
31 -12 24 -13 35 -5 45 16 19 29 17 29 -4z m-45 -32 c3 -5 -1 -10 -9 -10 -9 0
-16 5 -16 10 0 6 4 10 9 10 6 0 13 -4 16 -10z"/>
<path d="M3420 1576 c0 -120 -68 -302 -150 -400 -30 -36 -37 -51 -28 -57 10
-6 8 -18 -10 -54 -43 -88 -19 -135 67 -135 72 0 98 13 118 60 10 22 21 40 24
40 8 0 39 -63 39 -78 0 -12 76 -32 120 -32 44 0 51 27 15 56 -34 27 -40 60
-11 68 12 3 28 -3 43 -19 14 -13 45 -30 69 -39 41 -14 49 -14 85 1 41 16 59
38 59 71 0 16 -5 19 -22 14 -14 -3 -19 -1 -14 6 3 6 2 13 -4 17 -5 3 -10 21
-10 38 0 24 3 28 10 17 11 -17 13 -1 4 25 -5 13 -8 14 -15 3 -6 -8 -9 -2 -9
20 0 23 -4 31 -12 26 -8 -5 -9 0 -5 16 4 16 1 23 -14 27 -10 3 -19 9 -19 14 0
19 -37 28 -56 15 -17 -13 -16 -14 11 -9 25 3 27 2 13 -7 -10 -6 -35 -13 -55
-16 -21 -2 -46 -7 -55 -10 -10 -3 -18 -1 -18 5 0 10 22 16 44 12 4 -1 -1 14
-13 32 l-21 34 40 18 c21 10 41 24 45 33 4 12 1 11 -21 -3 -30 -19 -84 -37
-84 -27 0 3 12 17 28 30 29 25 26 25 -38 6 -14 -5 -22 0 -31 20 -7 14 -16 26
-20 26 -4 0 -11 9 -14 20 -3 11 -13 20 -21 20 -8 0 -14 7 -14 15 0 8 -4 15 -9
15 -9 0 -25 56 -22 77 1 6 -3 14 -9 18 -6 4 -10 -7 -10 -29z m160 -310 c0 -3
-4 -8 -10 -11 -5 -3 -10 -1 -10 4 0 6 5 11 10 11 6 0 10 -2 10 -4z m-130 -137
c6 -11 9 -25 6 -32 -2 -7 -5 -4 -5 6 -1 9 -5 17 -10 17 -5 0 -11 7 -15 15 -8
23 12 18 24 -6z m-136 -105 c9 -8 16 -20 16 -26 0 -6 -9 -1 -20 12 -29 33 -25
44 4 14z"/>
</g>
</svg>
